<?xml version="1.0" encoding="UTF-8"?>
<svg version="1.1" xmlns="http://www.w3.org/2000/svg" width="1024" height="1024">
<path d="M0 0 C1.1001947 -0.00511093 2.2003894 -0.01022186 3.33392334 -0.01548767 C6.96217328 -0.02935808 10.59023259 -0.02842803 14.21850586 -0.02612305 C16.75329152 -0.03001284 19.28807654 -0.0343481 21.82286072 -0.03910828 C27.13632588 -0.04656612 32.44972172 -0.04642262 37.76318359 -0.04101562 C43.87124575 -0.03499456 49.97907645 -0.04724351 56.08709913 -0.06858569 C61.99614682 -0.08846049 67.90512413 -0.09135897 73.81420708 -0.08785057 C76.3118284 -0.08836108 78.80945363 -0.0935475 81.30705452 -0.10366249 C101.8707523 -0.17669207 120.12937428 0.15328592 136.18334961 14.7121582 C152.80716687 32.44603493 153.49064329 55.88406731 153.00708008 78.79174805 C150.7783859 135.77123041 117.33138636 191.12730031 77.87084961 230.2746582 C75.43977508 232.69447776 73.02064155 235.11774587 70.65209961 237.59887695 C64.68708425 243.77838773 58.35689154 248.98802554 51.47485352 254.07641602 C49.96909897 255.20126279 48.48735503 256.35804959 47.00756836 257.5168457 C39.09662621 263.66615343 30.72170998 268.86911261 22.10083008 273.95776367 C20.68765755 274.79229976 19.27743401 275.63186686 17.87133789 276.47827148 C-10.0365468 293.25737691 -41.30942542 303.13610509 -73.12915039 309.2746582 C-73.97848145 309.44191406 -74.8278125 309.60916992 -75.70288086 309.78149414 C-150.4257627 324.1601989 -231.19112638 306.99846104 -294.09985352 264.67700195 C-299.28703411 261.09240554 -304.23146599 257.24539831 -309.12915039 253.2746582 C-310.05856445 252.53731445 -310.98797852 251.7999707 -311.94555664 251.0402832 C-321.96578336 243.00129619 -331.25054353 234.23501997 -340.37915039 225.2121582 C-341.04785156 224.55650879 -341.71655273 223.90085937 -342.40551758 223.2253418 C-343.3283252 222.30422607 -343.3283252 222.30422607 -344.26977539 221.36450195 C-344.82181641 220.81656982 -345.37385742 220.2686377 -345.94262695 219.70410156 C-347.12915039 218.2746582 -347.12915039 218.2746582 -347.12915039 216.2746582 C-347.78915039 216.2746582 -348.44915039 216.2746582 -349.12915039 216.2746582 C-350.68774414 214.5793457 -350.68774414 214.5793457 -352.56665039 212.1496582 C-353.2846582 211.22540039 -354.00266602 210.30114258 -354.74243164 209.34887695 C-355.53004883 208.33438477 -356.31766602 207.31989258 -357.12915039 206.2746582 C-357.94770508 205.27047852 -358.76625977 204.26629883 -359.60961914 203.23168945 C-403.12915039 149.71630415 -403.12915039 149.71630415 -403.12915039 129.2746582 C-403.78915039 128.9446582 -404.44915039 128.6146582 -405.12915039 128.2746582 C-405.87304688 126.54223633 -405.87304688 126.54223633 -406.56274414 124.3059082 C-406.81910645 123.4912207 -407.07546875 122.6765332 -407.33959961 121.8371582 C-407.60015137 120.9915332 -407.86070312 120.1459082 -408.12915039 119.2746582 C-408.63928615 117.70122742 -409.15098538 116.12830262 -409.66430664 114.5559082 C-410.17417714 112.96239988 -410.6832896 111.3686488 -411.19165039 109.7746582 C-411.57546875 108.58936523 -411.57546875 108.58936523 -411.96704102 107.38012695 C-415.58803593 96.00517634 -418.9248943 84.48979902 -413.12915039 73.2746582 C-410.0908022 68.32327596 -406.24796368 66.56412743 -401.12915039 64.2746582 C-400.44852539 63.92790039 -399.76790039 63.58114258 -399.06665039 63.22387695 C-394.6675979 61.068696 -390.58021498 61.08195501 -385.78930664 61.03637695 C-384.95917053 61.02662842 -384.12903442 61.01687988 -383.27374268 61.00683594 C-348.55921268 60.68310451 -348.55921268 60.68310451 -334.12915039 65.2746582 C-332.32510742 65.83540039 -332.32510742 65.83540039 -330.48461914 66.4074707 C-305.74413875 75.10552085 -293.06449523 93.33498116 -280.33374023 114.9699707 C-274.77445111 124.35610771 -268.01996931 132.83934538 -261.12915039 141.2746582 C-260.41758789 142.15637695 -260.41758789 142.15637695 -259.69165039 143.0559082 C-234.5700372 173.82988436 -194.49355714 191.44946009 -155.64575195 195.53588867 C-150.47684038 195.97739546 -145.31434438 196.16640001 -140.12915039 196.2746582 C-138.89293945 196.31461914 -137.65672852 196.35458008 -136.38305664 196.39575195 C-100.87053466 197.04560435 -61.65924171 187.77059646 -34.87915039 163.1105957 C-29.19037224 157.14245791 -25.32711909 150.68172903 -25.12915039 142.2746582 C-25.8113243 137.4534516 -27.28697547 133.63504428 -30.94165039 130.3371582 C-38.77275293 125.2699742 -47.37193492 125.1078439 -56.34790039 126.92700195 C-61.68109636 128.40632893 -66.89168673 130.19021658 -72.12133789 131.9934082 C-109.43471831 144.81656919 -145.33630264 143.15552208 -181.12915039 126.2746582 C-190.19298775 121.6430251 -198.46135351 115.97030968 -206.12915039 109.2746582 C-207.11786133 108.43032227 -208.10657227 107.58598633 -209.12524414 106.71606445 C-218.51288458 98.53911705 -229.01007311 88.20486119 -230.46899414 75.2590332 C-230.68015043 68.40067691 -230.16718254 63.70610459 -225.50024414 58.43481445 C-220.61515835 53.60894182 -216.01283628 51.50484515 -209.12915039 51.2746582 C-201.19408163 51.99219102 -196.039653 56.40277263 -190.37915039 61.5871582 C-177.17036799 73.56312091 -157.60767326 85.54053623 -139.12915039 85.2746582 C-138.79915039 85.6046582 -138.46915039 85.9346582 -138.12915039 86.2746582 C-117.92558188 87.88942914 -99.08506898 85.98253289 -81.12915039 76.2746582 C-80.26032227 75.81188477 -79.39149414 75.34911133 -78.49633789 74.87231445 C-57.60963574 63.05397672 -44.40705537 44.97997281 -36.04272461 22.97192383 C-33.22525777 15.76437894 -29.36944584 9.13913935 -22.69165039 4.8996582 C-21.64170898 4.20743164 -21.64170898 4.20743164 -20.57055664 3.5012207 C-13.79248175 0.09591588 -7.45107309 -0.0179536 0 0 Z " fill="#009EB1" transform="translate(637.129150390625,522.725341796875)"/>
<path d="M0 0 C1.47946452 1.37467951 2.95865856 2.74965022 4.4375 4.125 C5.76704696 5.27522463 7.10026807 6.42121889 8.4375 7.5625 C23.4851304 20.69497744 36.43171058 36.48713993 47.4375 53.125 C48.04851563 54.03765625 48.65953125 54.9503125 49.2890625 55.890625 C64.03289887 78.79937474 75.281058 106.61131737 76.4375 134.125 C76.4890625 134.95386719 76.540625 135.78273438 76.59375 136.63671875 C77.09861033 151.04627395 73.57431555 165.02404943 63.921875 175.98046875 C51.39716701 188.09365062 33.5936988 192.56845194 16.4375 193.125 C15.8089209 193.14546387 15.1803418 193.16592773 14.53271484 193.18701172 C-28.12435259 194.36141562 -69.44114754 183.24095823 -103.5625 157.125 C-104.97789062 156.07892578 -104.97789062 156.07892578 -106.421875 155.01171875 C-111.0104927 151.57025547 -111.0104927 151.57025547 -112.5625 150.125 C-112.5625 149.465 -112.5625 148.805 -112.5625 148.125 C-113.14644531 147.86589844 -113.73039062 147.60679687 -114.33203125 147.33984375 C-121.25982263 143.56656333 -126.29255081 136.15111577 -131.14453125 130.11328125 C-134.19718131 126.34062003 -137.33716438 122.64725659 -140.48681641 118.95556641 C-143.31657481 115.62915253 -146.04848564 112.24470967 -148.75 108.8125 C-173.73613934 78.31340465 -206.2414483 58.72395955 -245.6953125 54.5390625 C-280.35967051 51.36303512 -315.72491539 61.81843617 -342.5625 84.125 C-344.79694563 86.04023911 -347.00317805 87.96201883 -349.14453125 89.98046875 C-350.5625 91.125 -350.5625 91.125 -352.5625 91.125 C-352.81902344 91.7128125 -353.07554687 92.300625 -353.33984375 92.90625 C-354.67392658 95.32720543 -356.09691641 96.75670481 -358.125 98.625 C-387.84548528 127.75430022 -396.35558769 170.19403166 -396.78837585 210.17599487 C-396.80311842 212.38819497 -396.80941052 214.60025387 -396.8125 216.8125 C-396.81600464 217.97564728 -396.81600464 217.97564728 -396.81958008 219.16229248 C-396.83691846 234.7435846 -395.86185443 250.21766813 -394.62988281 265.74487305 C-394.49261024 267.4783348 -394.35555863 269.21181407 -394.21875 270.9453125 C-394.15419617 271.76109268 -394.08964233 272.57687286 -394.02313232 273.41737366 C-393.57488482 279.3267597 -393.37944403 285.19771553 -393.5625 291.125 C-420.47146849 288.05494418 -444.30903058 283.0246418 -465.5625 265.125 C-466.573125 264.3825 -467.58375 263.64 -468.625 262.875 C-487.50523643 246.86668686 -496.05991126 218.83021945 -498.5625 195.125 C-498.64226074 194.37524902 -498.72202148 193.62549805 -498.80419922 192.85302734 C-504.24023236 136.57759454 -484.73079447 75.4927366 -449.0625 31.8125 C-447.43927601 29.8626061 -445.80362465 27.92464434 -444.15625 25.99511719 C-442.59911499 24.16796428 -441.06328542 22.32477971 -439.53125 20.4765625 C-429.53783246 8.50478593 -418.80891345 -2.20015354 -406.5625 -11.875 C-404.83320831 -13.33318508 -403.10404426 -14.79152154 -401.375 -16.25 C-370.3738687 -41.506933 -332.95294752 -58.46864696 -294.5625 -68.875 C-293.86705078 -69.06400879 -293.17160156 -69.25301758 -292.45507812 -69.44775391 C-197.35546432 -94.72999994 -91.38582971 -70.14497527 0 0 Z " fill="#F97152" transform="translate(721.5625,254.875)"/>
<path d="M0 0 C9.30639341 9.75124969 12.44356093 19.94970534 12.2109375 33.17578125 C11.6049141 44.16276098 6.76134954 53.73336439 -1.1875 61.3125 C-12.08033756 70.44842828 -24.29049356 72.08945689 -38 71 C-48.3787681 68.97070023 -56.70887063 62.69795972 -62.71875 54.1171875 C-69.27366779 43.28558555 -71.02996338 31.0243968 -68.24609375 18.6484375 C-66.4820817 13.62619143 -64.23857856 9.25063436 -61 5 C-60.443125 4.175 -59.88625 3.35 -59.3125 2.5 C-43.56989775 -14.51902946 -17.08347325 -14.81524739 0 0 Z " fill="#005582" transform="translate(483,436)"/>
<path d="M0 0 C0.66 0.66 1.32 1.32 2 2 C-0.06277319 1.87959235 -2.12519663 1.75320321 -4.1875 1.625 C-4.86619141 1.58318604 -5.54488281 1.54137207 -6.24414062 1.49829102 C-9.94526734 1.255124 -13.61965487 0.9456106 -17.30078125 0.48828125 C-29.61700654 -0.99192685 -41.86029802 -1.22009599 -54.25 -1.25 C-55.10851562 -1.25508575 -55.96703125 -1.26017151 -56.8515625 -1.26541138 C-59.34391155 -1.27729076 -61.83576973 -1.27402234 -64.328125 -1.265625 C-65.43815887 -1.27156929 -65.43815887 -1.27156929 -66.57061768 -1.27763367 C-71.93783695 -1.23082608 -76.79886162 -0.26436556 -82 1 C-85.50958915 1.64448212 -89.03234609 2.16858527 -92.5625 2.6875 C-93.45646484 2.82994141 -94.35042969 2.97238281 -95.27148438 3.11914062 C-100.80414211 3.93264772 -105.48572415 3.95872474 -111 3 C-111 3.66 -111 4.32 -111 5 C-112.97750678 5.48597153 -114.9571165 5.96338757 -116.9375 6.4375 C-118.59072266 6.83775391 -118.59072266 6.83775391 -120.27734375 7.24609375 C-122.98754015 7.79495829 -125.35147522 8.11644484 -128.07421875 8.3125 C-134.62686617 8.97951931 -140.69523129 11.39293604 -146.875 13.5625 C-149.28769209 14.40108865 -151.70169634 15.23591453 -154.1171875 16.06640625 C-155.17534668 16.43709229 -156.23350586 16.80777832 -157.32373047 17.18969727 C-160 18 -160 18 -163 18 C-163 18.66 -163 19.32 -163 20 C-164.11375 20.391875 -165.2275 20.78375 -166.375 21.1875 C-170.65873167 22.770122 -174.60419537 24.82039132 -178.60546875 27.01171875 C-181.25107638 28.10362532 -183.16603404 28.18624643 -186 28 C-186.33 28.99 -186.66 29.98 -187 31 C-189.8125 32.5625 -189.8125 32.5625 -193 34 C-193.721875 34.391875 -194.44375 34.78375 -195.1875 35.1875 C-197 36 -197 36 -200 36 C-200.33 36.66 -200.66 37.32 -201 38 C-202.52832976 39.07131465 -204.09946595 40.08186 -205.6875 41.0625 C-206.67492187 41.67867187 -207.66234375 42.29484375 -208.6796875 42.9296875 C-210.32324219 43.95449219 -210.32324219 43.95449219 -212 45 C-214.44269851 46.55444451 -216.87795708 48.12032197 -219.3125 49.6875 C-219.88637451 50.05560791 -220.46024902 50.42371582 -221.05151367 50.80297852 C-228.00935342 55.06848252 -228.00935342 55.06848252 -234.25 60.25 C-236.52463713 62.52463713 -238.70030829 64.32050357 -241.25 66.25 C-247.32112202 71.01166433 -252.63286852 76.50011594 -258.02246094 82.00878906 C-261.54086269 85.5951949 -265.05290307 88.88157535 -269 92 C-270.3703055 93.97485205 -271.70672372 95.97386717 -273 98 C-274.625 99.875 -274.625 99.875 -276 101 C-276.66 101 -277.32 101 -278 101 C-278.1134375 101.598125 -278.226875 102.19625 -278.34375 102.8125 C-279.22827605 105.76092016 -281.10470845 107.55613045 -283.12109375 109.8203125 C-288.6520432 116.23667382 -293.75783199 123.01798706 -297.69140625 130.53125 C-299.04198252 133.07920285 -300.48369329 135.56546416 -301.93945312 138.05444336 C-305.71687598 144.53884534 -309.08224126 151.08251727 -312 158 C-312.41596436 158.97356445 -312.41596436 158.97356445 -312.84033203 159.96679688 C-316.34841818 168.19420575 -319.72658989 176.3348557 -322 185 C-322.40430165 186.46892803 -322.80932325 187.93765799 -323.21484375 189.40625 C-325.3469178 197.21476673 -327.41645763 204.97217083 -328.56176758 212.99755859 C-328.84946531 214.96864867 -329.15839014 216.93678029 -329.49047852 218.90087891 C-330.83237959 226.93952355 -331.48744719 234.85811085 -331.75 243 C-331.79165283 244.25876953 -331.83330566 245.51753906 -331.8762207 246.81445312 C-332.14891293 257.67795922 -331.49493431 268.24550439 -330 279 C-329.90251465 279.70721191 -329.8050293 280.41442383 -329.70458984 281.14306641 C-329.19286266 284.77223213 -328.62966514 288.3894733 -328 292 C-327.34 292 -326.68 292 -326 292 C-325.9484375 292.53625 -325.896875 293.0725 -325.84375 293.625 C-324.96508679 299.69576402 -322.91270275 304.75223452 -320.1875 310.1875 C-319.85621094 310.85201172 -319.52492188 311.51652344 -319.18359375 312.20117188 C-317.41917787 315.61803109 -315.51439388 318.76080415 -313.23828125 321.86328125 C-311 325 -311 325 -311 327 C-310.34 327 -309.68 327 -309 327 C-305 332.41176471 -305 332.41176471 -305 335 C-303.9171875 335.3403125 -303.9171875 335.3403125 -302.8125 335.6875 C-299.44144767 337.26065775 -297.59034943 339.34647131 -295 342 C-291.973002 344.18974324 -289.04252439 345.97913898 -285.6875 347.625 C-283 349 -283 349 -282 351 C-279.69520005 351.80867657 -279.69520005 351.80867657 -276.9375 352.4375 C-273.32827491 353.35390481 -269.89184119 354.35937367 -266.4375 355.75 C-265.303125 356.1625 -264.16875 356.575 -263 357 C-262.34 356.67 -261.68 356.34 -261 356 C-261 356.66 -261 357.32 -261 358 C-251.595 359.485 -251.595 359.485 -242 361 C-242 361.66 -242 362.32 -242 363 C-239.03 362.67 -236.06 362.34 -233 362 C-233.2165625 359.97359375 -233.2165625 359.97359375 -233.4375 357.90625 C-233.62521469 356.10418902 -233.81270263 354.3021044 -234 352.5 C-234.09539062 351.613125 -234.19078125 350.72625 -234.2890625 349.8125 C-235.76028963 335.52057927 -235.76028963 335.52057927 -234 332 C-234.66 331.67 -235.32 331.34 -236 331 C-238.26895544 290.84759209 -239.55758464 249.94406075 -224.19921875 212.01171875 C-222.97232276 209.15218328 -222.97232276 209.15218328 -222.45703125 206.64453125 C-222.23080078 205.83048828 -222.23080078 205.83048828 -222 205 C-221.34 204.67 -220.68 204.34 -220 204 C-218.87293294 201.88984046 -218.87293294 201.88984046 -217.875 199.4375 C-217.52179688 198.61121094 -217.16859375 197.78492188 -216.8046875 196.93359375 C-216.40636719 195.97646484 -216.40636719 195.97646484 -216 195 C-215.34 195 -214.68 195 -214 195 C-213.773125 194.319375 -213.54625 193.63875 -213.3125 192.9375 C-211.91437453 189.80836205 -210.18909099 187.36076623 -208.12109375 184.6484375 C-206.80867708 182.87939685 -206.80867708 182.87939685 -206 180 C-203.4375 178.3125 -203.4375 178.3125 -201 177 C-201.29519531 177.58652344 -201.59039062 178.17304688 -201.89453125 178.77734375 C-202.84812977 180.69464961 -203.7708141 182.62727421 -204.6875 184.5625 C-206.30576459 187.82282719 -208.16070623 190.79107595 -210.1875 193.8125 C-229.25574618 223.51968182 -233.20167832 257.0863876 -233.25 291.6875 C-233.25350464 292.85064728 -233.25350464 292.85064728 -233.25708008 294.03729248 C-233.27441846 309.6185846 -232.29935443 325.09266813 -231.06738281 340.61987305 C-230.93011024 342.3533348 -230.79305863 344.08681407 -230.65625 345.8203125 C-230.59169617 346.63609268 -230.52714233 347.45187286 -230.46063232 348.29237366 C-230.01238482 354.2017597 -229.81694403 360.07271553 -230 366 C-256.90896849 362.92994418 -280.74653058 357.8996418 -302 340 C-303.010625 339.2575 -304.02125 338.515 -305.0625 337.75 C-323.94273643 321.74168686 -332.49741126 293.70521945 -335 270 C-335.07976074 269.25024902 -335.15952148 268.50049805 -335.24169922 267.72802734 C-340.67773236 211.45259454 -321.16829447 150.3677366 -285.5 106.6875 C-283.87677601 104.7376061 -282.24112465 102.79964434 -280.59375 100.87011719 C-279.03661499 99.04296428 -277.50078542 97.19977971 -275.96875 95.3515625 C-265.97533246 83.37978593 -255.24641345 72.67484646 -243 63 C-241.27070831 61.54181492 -239.54154426 60.08347846 -237.8125 58.625 C-206.8113687 33.368067 -169.39044752 16.40635304 -131 6 C-130.30455078 5.81099121 -129.60910156 5.62198242 -128.89257812 5.42724609 C-88.6300298 -5.27655818 -41.01330146 -9.00291983 0 0 Z " fill="#F62955" transform="translate(558,180)"/>
<path d="M0 0 C1.07391495 -0.00029205 2.1478299 -0.00058411 3.25428772 -0.00088501 C6.78752858 0.00050316 10.32055595 0.01604042 13.85375977 0.03173828 C16.30998113 0.03547023 18.76620398 0.03831634 21.22242737 0.04031372 C27.67504006 0.04793584 34.12756216 0.06757222 40.58013916 0.08972168 C47.16938044 0.11021068 53.75863641 0.11932197 60.34790039 0.12939453 C73.26786082 0.15081937 86.18775859 0.18455168 99.10766602 0.22705078 C99.10766602 0.55705078 99.10766602 0.88705078 99.10766602 1.22705078 C97.79967545 1.23513763 96.49168488 1.24322449 95.14405823 1.2515564 C82.79992998 1.32913905 70.45591031 1.41690893 58.11192417 1.51457787 C51.76620724 1.5644615 45.42050632 1.6107923 39.07470703 1.64892578 C32.94733808 1.68587867 26.82010568 1.73226588 20.69285393 1.78511429 C18.35859517 1.8036051 16.02430721 1.81873253 13.69000435 1.83039474 C10.4131493 1.84734814 7.13660338 1.87640528 3.85986328 1.90820312 C2.42163208 1.91144341 2.42163208 1.91144341 0.9543457 1.91474915 C-6.20325559 2.00311164 -13.90220629 2.41886665 -20.07983398 6.41455078 C-20.96735352 6.96175781 -20.96735352 6.96175781 -21.87280273 7.52001953 C-28.63570515 13.23643802 -31.88890051 19.92316282 -35.32983398 27.97705078 C-40.81304843 40.73095928 -47.28038171 51.1829064 -56.89233398 61.22705078 C-57.44405273 61.84193359 -57.99577148 62.45681641 -58.56420898 63.09033203 C-67.06923715 72.24797374 -78.31721176 78.76161029 -89.89233398 83.22705078 C-90.55233398 83.22705078 -91.21233398 83.22705078 -91.89233398 83.22705078 C-91.89233398 83.88705078 -91.89233398 84.54705078 -91.89233398 85.22705078 C-93.43250092 85.71101628 -94.97455592 86.18897465 -96.51733398 86.66455078 C-97.37584961 86.93138672 -98.23436523 87.19822266 -99.11889648 87.47314453 C-119.19080725 92.92931182 -143.40059459 89.72429725 -162.89233398 83.22705078 C-162.89233398 82.56705078 -162.89233398 81.90705078 -162.89233398 81.22705078 C-164.37733398 81.72205078 -164.37733398 81.72205078 -165.89233398 82.22705078 C-168.32337844 80.96650921 -170.58563924 79.68149327 -172.89233398 78.22705078 C-173.75858398 77.71142578 -174.62483398 77.19580078 -175.51733398 76.66455078 C-176.30108398 76.19017578 -177.08483398 75.71580078 -177.89233398 75.22705078 C-178.79983398 74.73205078 -179.70733398 74.23705078 -180.64233398 73.72705078 C-182.89233398 72.22705078 -182.89233398 72.22705078 -183.89233398 69.22705078 C-185.54233398 68.89705078 -187.19233398 68.56705078 -188.89233398 68.22705078 C-188.89233398 67.56705078 -188.89233398 66.90705078 -188.89233398 66.22705078 C-190.89561285 64.44074425 -192.89405939 62.79624115 -195.01733398 61.16455078 C-195.58709961 60.705 -196.15686523 60.24544922 -196.74389648 59.77197266 C-200.4082241 56.93628277 -203.13821831 55.58108067 -207.89233398 55.22705078 C-207.89233398 54.56705078 -207.89233398 53.90705078 -207.89233398 53.22705078 C-214.46155692 54.96059572 -220.08247125 57.28845693 -224.89233398 62.22705078 C-228.37277665 68.92020975 -226.30055246 76.43736943 -224.25952148 83.37939453 C-222.3547808 88.38207554 -218.97109753 91.36333174 -215.07983398 94.85205078 C-213.89233398 96.22705078 -213.89233398 96.22705078 -213.89233398 99.22705078 C-212.40733398 99.72205078 -212.40733398 99.72205078 -210.89233398 100.22705078 C-210.43858398 100.84580078 -209.98483398 101.46455078 -209.51733398 102.10205078 C-207.59302183 104.61845899 -205.60377274 105.61309914 -202.89233398 107.22705078 C-201.22566732 108.89371745 -199.55900065 110.56038411 -197.89233398 112.22705078 C-196.90233398 112.55705078 -195.91233398 112.88705078 -194.89233398 113.22705078 C-194.89233398 113.88705078 -194.89233398 114.54705078 -194.89233398 115.22705078 C-194.04928711 115.38753906 -194.04928711 115.38753906 -193.18920898 115.55126953 C-190.50376362 116.34137505 -188.51064724 117.549927 -186.14233398 119.03955078 C-176.05817978 125.18664043 -165.44142586 129.5730928 -153.89233398 132.22705078 C-153.89233398 132.88705078 -153.89233398 133.54705078 -153.89233398 134.22705078 C-153.31483398 134.04142578 -152.73733398 133.85580078 -152.14233398 133.66455078 C-149.68540874 133.18681532 -148.24835864 133.46975714 -145.89233398 134.22705078 C-145.89233398 134.88705078 -145.89233398 135.54705078 -145.89233398 136.22705078 C-145.27358398 136.04142578 -144.65483398 135.85580078 -144.01733398 135.66455078 C-141.89233398 135.22705078 -141.89233398 135.22705078 -139.89233398 136.22705078 C-137.55934738 136.26727469 -135.22526733 136.27025325 -132.89233398 136.22705078 C-132.89233398 136.55705078 -132.89233398 136.88705078 -132.89233398 137.22705078 C-128.71142985 137.25185761 -124.53056527 137.26996127 -120.34960938 137.28198242 C-118.92870334 137.28699643 -117.50780243 137.2938093 -116.08691406 137.30249023 C-114.03896822 137.31468466 -111.99109089 137.32030851 -109.94311523 137.32470703 C-108.71246338 137.32994385 -107.48181152 137.33518066 -106.21386719 137.34057617 C-103.28762039 137.24056112 -100.74028592 136.8440919 -97.89233398 136.22705078 C-95.55931412 136.18880455 -93.2252189 136.18130794 -90.89233398 136.22705078 C-90.89233398 135.56705078 -90.89233398 134.90705078 -90.89233398 134.22705078 C-89.36394897 134.04239258 -89.36394897 134.04239258 -87.8046875 133.85400391 C-84.11185661 133.2622292 -80.83733119 132.37469273 -77.29467773 131.19580078 C-76.08102539 130.79748047 -74.86737305 130.39916016 -73.61694336 129.98876953 C-72.36719727 129.57240234 -71.11745117 129.15603516 -69.82983398 128.72705078 C-67.34060017 127.8989 -64.84951391 127.07715445 -62.35717773 126.25830078 C-61.26010498 125.89285156 -60.16303223 125.52740234 -59.03271484 125.15087891 C-50.0074646 122.49585699 -41.40516851 121.78649403 -32.86499023 126.09423828 C-27.81101411 128.9965216 -24.76436192 131.61096698 -22.89233398 137.22705078 C-21.62757453 145.81349108 -22.74165592 151.71361979 -27.86108398 158.74267578 C-28.53139648 159.56251953 -29.20170898 160.38236328 -29.89233398 161.22705078 C-30.45952148 161.92314453 -31.02670898 162.61923828 -31.61108398 163.33642578 C-42.91951679 175.73602315 -61.75340062 186.12393213 -77.89233398 190.22705078 C-78.88233398 189.89705078 -79.87233398 189.56705078 -80.89233398 189.22705078 C-80.21170898 188.95892578 -79.53108398 188.69080078 -78.82983398 188.41455078 C-60.06683022 180.82950671 -36.45372509 171.2563992 -26.89233398 152.22705078 C-24.67004386 146.22213917 -24.37890643 141.18811905 -26.77905273 135.20361328 C-29.7367288 129.95244104 -34.216961 127.82564908 -39.89233398 126.22705078 C-51.33199137 124.91879209 -61.24788286 128.2782717 -71.88452148 131.94580078 C-109.1979019 144.76896177 -145.09948624 143.10791466 -180.89233398 126.22705078 C-189.95617134 121.59541768 -198.2245371 115.92270226 -205.89233398 109.22705078 C-206.88104492 108.38271484 -207.86975586 107.53837891 -208.88842773 106.66845703 C-218.27606817 98.49150963 -228.77325671 88.15725376 -230.23217773 75.21142578 C-230.44333402 68.35306948 -229.93036613 63.65849716 -225.26342773 58.38720703 C-220.37834194 53.5613344 -215.77601987 51.45723773 -208.89233398 51.22705078 C-200.95726523 51.94458359 -195.8028366 56.35516521 -190.14233398 61.53955078 C-176.93355158 73.51551349 -157.37085685 85.49292881 -138.89233398 85.22705078 C-138.56233398 85.55705078 -138.23233398 85.88705078 -137.89233398 86.22705078 C-117.68876548 87.84182172 -98.84825257 85.93492546 -80.89233398 76.22705078 C-80.02350586 75.76427734 -79.15467773 75.30150391 -78.25952148 74.82470703 C-57.37281934 63.00636929 -44.17023896 44.93236539 -35.8059082 22.92431641 C-32.98844136 15.71677152 -29.13262943 9.09153193 -22.45483398 4.85205078 C-21.75487305 4.39056641 -21.05491211 3.92908203 -20.33374023 3.45361328 C-13.61421065 0.07772162 -7.38475519 -0.05291978 0 0 Z " fill="#034D72" transform="translate(636.892333984375,522.77294921875)"/>
<path d="M0 0 C17.72308222 8.5395201 34.16314299 18.31604117 50 30 C50.6089209 30.44907715 51.2178418 30.8981543 51.84521484 31.36083984 C58.42240921 36.24493119 64.71031105 41.36954174 70.73828125 46.921875 C72.79026416 48.80728935 74.88151954 50.62770033 77 52.4375 C92.0476304 65.56997744 104.99421058 81.36213993 116 98 C116.91652344 99.36898437 116.91652344 99.36898437 117.8515625 100.765625 C132.59539887 123.67437474 143.843558 151.48631737 145 179 C145.0515625 179.82886719 145.103125 180.65773438 145.15625 181.51171875 C145.66111033 195.92127395 142.13681555 209.89904943 132.484375 220.85546875 C119.95966701 232.96865062 102.1561988 237.44345194 85 238 C84.3714209 238.02046387 83.7428418 238.04092773 83.09521484 238.06201172 C40.43814741 239.23641562 -0.87864754 228.11595823 -35 202 C-36.41539062 200.95392578 -36.41539062 200.95392578 -37.859375 199.88671875 C-42.4479927 196.44525547 -42.4479927 196.44525547 -44 195 C-44 194.34 -44 193.68 -44 193 C-44.87591797 192.61134766 -44.87591797 192.61134766 -45.76953125 192.21484375 C-52.69732263 188.44156333 -57.73005081 181.02611577 -62.58203125 174.98828125 C-65.17483913 171.78392256 -67.82870202 168.63879833 -70.5 165.5 C-71.88044415 163.86942617 -73.2598677 162.23799339 -74.63916016 160.60644531 C-75.54564801 159.53635381 -76.45417665 158.46798771 -77.36474609 157.40136719 C-78.6459243 155.89845561 -79.9169438 154.38690204 -81.1875 152.875 C-81.92355469 152.00617188 -82.65960937 151.13734375 -83.41796875 150.2421875 C-85 148 -85 148 -85 145 C-80.90728614 147.10166387 -79.19807482 149.00350032 -77 153 C-76.0206121 154.02019573 -75.02104551 155.02149805 -74 156 C-73 157.33333333 -72 158.66666667 -71 160 C-70.443125 160.53625 -69.88625 161.0725 -69.3125 161.625 C-68 163 -68 163 -68 165 C-67.1028125 165.3403125 -67.1028125 165.3403125 -66.1875 165.6875 C-62.54679079 167.87192553 -61.30801932 171.07594205 -60 175 C-59.34 175 -58.68 175 -58 175 C-57.87625 175.928125 -57.87625 175.928125 -57.75 176.875 C-57.22094022 179.1346633 -57.22094022 179.1346633 -55.25 179.9375 C-54.5075 180.288125 -53.765 180.63875 -53 181 C-51.31237149 182.6454378 -49.6459651 184.31288577 -48 186 C-47.236875 186.53625 -46.47375 187.0725 -45.6875 187.625 C-45.130625 188.07875 -44.57375 188.5325 -44 189 C-44 189.99 -44 190.98 -44 192 C-43.01 192.33 -42.02 192.66 -41 193 C-41 193.66 -41 194.32 -41 195 C-40.01 195 -39.02 195 -38 195 C-36.6256709 196.29103643 -35.29103643 197.6256709 -34 199 C-33.34 199.33 -32.68 199.66 -32 200 C-32 200.66 -32 201.32 -32 202 C-31.443125 202.0825 -30.88625 202.165 -30.3125 202.25 C-27.28739762 203.23111429 -25.43956799 204.97694362 -23 207 C-21.35178756 208.03013277 -19.68496298 209.03114628 -18 210 C-17.154375 210.53625 -16.30875 211.0725 -15.4375 211.625 C-13.115834 213.0767901 -13.115834 213.0767901 -10.75 213.5625 C-10.1725 213.706875 -9.595 213.85125 -9 214 C-8.67 214.66 -8.34 215.32 -8 216 C-6.14709177 216.99458965 -6.14709177 216.99458965 -3.88671875 217.875 C-3.05076172 218.22046875 -2.21480469 218.5659375 -1.35351562 218.921875 C-0.47373047 219.27765625 0.40605469 219.6334375 1.3125 220 C3.03822478 220.70720125 4.76350139 221.41549731 6.48828125 222.125 C7.25696533 222.43695313 8.02564941 222.74890625 8.81762695 223.0703125 C11 224 11 224 13.0793457 225.06835938 C15.90488347 226.43892657 18.80174496 226.89195814 21.875 227.5 C26.39486986 228.39811669 30.6369779 229.52997908 35 231 C40.63939448 232.28312065 46.1951472 233.31377583 52 233 C52 233.66 52 234.32 52 235 C52.886875 234.814375 53.77375 234.62875 54.6875 234.4375 C58.05129445 233.95412009 61.0630042 234.14360272 64.4375 234.5 C78.80805907 235.76700985 94.2220513 235.55292076 108 231 C109.8253125 230.566875 109.8253125 230.566875 111.6875 230.125 C121.45607356 226.80737124 129.78523023 220.99098236 135 212 C135.34933594 211.41605469 135.69867187 210.83210937 136.05859375 210.23046875 C138.70878842 205.46400141 139.78400492 200.88968743 140.60546875 195.515625 C141 193 141 193 141.50976562 191.20849609 C143.68745801 181.39803527 141.37470573 171.21147619 139.1875 161.625 C138.92646484 160.40683594 138.66542969 159.18867188 138.39648438 157.93359375 C137.07828497 151.96426606 135.62622216 146.51801734 133 141 C132.49787337 139.54941196 132.0149197 138.09185146 131.5625 136.625 C130.53178353 133.41832654 129.31018905 130.4215385 127.875 127.375 C126.10279566 123.52620508 125.35845051 120.21179354 125 116 C124.34 116 123.68 116 123 116 C121.4921875 113.8828125 121.4921875 113.8828125 119.875 111.125 C119.33617187 110.22007812 118.79734375 109.31515625 118.2421875 108.3828125 C117 106 117 106 117 104 C116.34 104 115.68 104 115 104 C114.67386719 103.37351562 114.34773437 102.74703125 114.01171875 102.1015625 C113.57472656 101.28429687 113.13773438 100.46703125 112.6875 99.625 C112.25824219 98.81289063 111.82898438 98.00078125 111.38671875 97.1640625 C110.03221276 94.73165957 110.03221276 94.73165957 107 93 C106.566875 91.6078125 106.566875 91.6078125 106.125 90.1875 C104.77112667 86.35152556 102.95960237 84.75311848 100 82 C95 76.52445652 95 76.52445652 95 74 C93.68 73.67 92.36 73.34 91 73 C91 72.01 91 71.02 91 70 C90.34 70 89.68 70 89 70 C87.48259024 68.30096977 86.034872 66.53927277 84.625 64.75 C80.29438082 59.2751704 76.20138172 54.98158374 70.390625 51.1484375 C69.93171875 50.76945312 69.4728125 50.39046875 69 50 C69 49.34 69 48.68 69 48 C68.47277344 47.78214844 67.94554687 47.56429687 67.40234375 47.33984375 C64.10045891 45.49830472 61.39179337 43.04257773 58.5625 40.5625 C55.49706962 37.87804371 52.6063978 35.35895494 49.08984375 33.27734375 C48.40019531 32.85582031 47.71054687 32.43429688 47 32 C47 31.34 47 30.68 47 30 C45.35 29.34 43.7 28.68 42 28 C42 27.34 42 26.68 42 26 C41.401875 25.855625 40.80375 25.71125 40.1875 25.5625 C38.43849596 25.1127561 36.71322977 24.57107659 35 24 C35 23.34 35 22.68 35 22 C34.360625 21.896875 33.72125 21.79375 33.0625 21.6875 C32.381875 21.460625 31.70125 21.23375 31 21 C30.505 19.515 30.505 19.515 30 18 C28.824375 17.7834375 28.824375 17.7834375 27.625 17.5625 C25 17 25 17 23 16 C23 15.34 23 14.68 23 14 C22.41992188 13.82984375 21.83984375 13.6596875 21.2421875 13.484375 C16.21196928 11.92384526 12.32659789 10.07669184 8 7 C4.40931029 5.09473607 0.79594903 3.45139228 -3 2 C-2.01 1.34 -1.02 0.68 0 0 Z " fill="#F7CC1E" transform="translate(653,210)"/>
<path d="M0 0 C0 0.99 0 1.98 0 3 C-0.66 3.66 -1.32 4.32 -2 5 C-2.391875 5.969375 -2.78375 6.93875 -3.1875 7.9375 C-4.50486866 11.15554982 -6.18394739 13.86755929 -8.125 16.75 C-27.27616793 46.42823698 -31.20166817 80.07912417 -31.25 114.6875 C-31.25350464 115.85064728 -31.25350464 115.85064728 -31.25708008 117.03729248 C-31.27441846 132.6185846 -30.29935443 148.09266813 -29.06738281 163.61987305 C-28.93011024 165.3533348 -28.79305863 167.08681407 -28.65625 168.8203125 C-28.59169617 169.63609268 -28.52714233 170.45187286 -28.46063232 171.29237366 C-28.01238482 177.2017597 -27.81694403 183.07271553 -28 189 C-54.90896849 185.92994418 -78.74653058 180.8996418 -100 163 C-101.5159375 161.88625 -101.5159375 161.88625 -103.0625 160.75 C-117.58888612 148.43326134 -125.06684849 128.77370389 -130 111 C-130.30043213 109.93483154 -130.30043213 109.93483154 -130.60693359 108.84814453 C-138.42142873 79.34032282 -132.34823024 39.27456524 -123 11 C-121.96724465 14.19092025 -122.06567877 16.19829188 -122.92578125 19.421875 C-123.14459961 20.27330078 -123.36341797 21.12472656 -123.58886719 22.00195312 C-123.82766602 22.90880859 -124.06646484 23.81566406 -124.3125 24.75 C-130.54510446 49.9027055 -131.56748077 76.33569081 -128 102 C-127.90251465 102.70721191 -127.8050293 103.41442383 -127.70458984 104.14306641 C-127.19286266 107.77223213 -126.62966514 111.3894733 -126 115 C-125.34 115 -124.68 115 -124 115 C-123.9484375 115.53625 -123.896875 116.0725 -123.84375 116.625 C-122.96508679 122.69576402 -120.91270275 127.75223452 -118.1875 133.1875 C-117.85621094 133.85201172 -117.52492187 134.51652344 -117.18359375 135.20117188 C-115.41917787 138.61803109 -113.51439388 141.76080415 -111.23828125 144.86328125 C-109 148 -109 148 -109 150 C-108.34 150 -107.68 150 -107 150 C-103 155.41176471 -103 155.41176471 -103 158 C-101.9171875 158.3403125 -101.9171875 158.3403125 -100.8125 158.6875 C-97.44144767 160.26065775 -95.59034943 162.34647131 -93 165 C-89.973002 167.18974324 -87.04252439 168.97913898 -83.6875 170.625 C-81 172 -81 172 -80 174 C-77.69520005 174.80867657 -77.69520005 174.80867657 -74.9375 175.4375 C-71.32827491 176.35390481 -67.89184119 177.35937367 -64.4375 178.75 C-63.303125 179.1625 -62.16875 179.575 -61 180 C-60.34 179.67 -59.68 179.34 -59 179 C-59 179.66 -59 180.32 -59 181 C-52.73 181.99 -46.46 182.98 -40 184 C-40 184.66 -40 185.32 -40 186 C-37.03 185.67 -34.06 185.34 -31 185 C-31.2165625 182.97359375 -31.2165625 182.97359375 -31.4375 180.90625 C-31.62521469 179.10418902 -31.81270263 177.3021044 -32 175.5 C-32.09539062 174.613125 -32.19078125 173.72625 -32.2890625 172.8125 C-33.76028963 158.52057927 -33.76028963 158.52057927 -32 155 C-32.66 154.67 -33.32 154.34 -34 154 C-36.26895544 113.84759209 -37.55758464 72.94406075 -22.19921875 35.01171875 C-20.97232276 32.15218328 -20.97232276 32.15218328 -20.45703125 29.64453125 C-20.23080078 28.83048828 -20.23080078 28.83048828 -20 28 C-19.01 27.505 -19.01 27.505 -18 27 C-16.87293294 24.88984046 -16.87293294 24.88984046 -15.875 22.4375 C-15.52179688 21.61121094 -15.16859375 20.78492188 -14.8046875 19.93359375 C-14.53914063 19.29550781 -14.27359375 18.65742188 -14 18 C-13.34 18 -12.68 18 -12 18 C-11.773125 17.319375 -11.54625 16.63875 -11.3125 15.9375 C-9.91437453 12.80836205 -8.18909099 10.36076623 -6.12109375 7.6484375 C-4.80867708 5.87939685 -4.80867708 5.87939685 -4 3 C-1.9375 1.3125 -1.9375 1.3125 0 0 Z " fill="#D52E84" transform="translate(356,357)"/>
<path d="M0 0 C0.99 0.495 0.99 0.495 2 1 C-4.03321813 7.63226107 -10.10884239 14.20985506 -16.4375 20.5625 C-16.92057617 21.05008789 -17.40365234 21.53767578 -17.90136719 22.04003906 C-20.08773748 24.2173058 -22.29375163 26.23246532 -24.71484375 28.1484375 C-27.50948126 30.41281046 -29.07328452 32.98147909 -31 36 C-32.625 37.875 -32.625 37.875 -34 39 C-34.66 39 -35.32 39 -36 39 C-36.1134375 39.598125 -36.226875 40.19625 -36.34375 40.8125 C-37.22827605 43.76092016 -39.10470845 45.55613045 -41.12109375 47.8203125 C-46.6520432 54.23667382 -51.75783199 61.01798706 -55.69140625 68.53125 C-57.04198252 71.07920285 -58.48369329 73.56546416 -59.93945312 76.05444336 C-63.71687598 82.53884534 -67.08224126 89.08251727 -70 96 C-70.27730957 96.64904297 -70.55461914 97.29808594 -70.84033203 97.96679688 C-74.35063825 106.19941241 -77.66548298 114.3443292 -80 123 C-80.33 123.99 -80.66 124.98 -81 126 C-81.66 126 -82.32 126 -83 126 C-89.35769814 150.95734695 -91.65266696 176.31532087 -92 202 C-92.33 202 -92.66 202 -93 202 C-93.86795405 192.74560347 -94.03994987 183.82690478 -93.3125 174.5625 C-93.22000977 173.35456787 -93.12751953 172.14663574 -93.03222656 170.90209961 C-88.99728921 122.48603346 -70.20472427 75.89523068 -38.59375 38.87011719 C-37.03661499 37.04296428 -35.50078542 35.19977971 -33.96875 33.3515625 C-23.98128233 21.38691368 -13.25849291 10.63835702 -1 1 C-0.67 0.67 -0.34 0.34 0 0 Z " fill="#EF215E" transform="translate(316,242)"/>
<path d="M0 0 C4.20617408 1.52592405 7.92490369 3.65214713 11.75 5.9375 C16.3470217 8.62803049 20.76967955 10.87981023 25.90234375 12.34765625 C29.09066769 13.33918343 32.04716264 14.79138427 35.0546875 16.23046875 C37.11627836 17.18392333 37.11627836 17.18392333 40 17 C40 17.66 40 18.32 40 19 C40.5775 18.814375 41.155 18.62875 41.75 18.4375 C44.20692525 17.95976454 45.64397534 18.24270636 48 19 C48 19.66 48 20.32 48 21 C48.61875 20.814375 49.2375 20.62875 49.875 20.4375 C52 20 52 20 54 21 C56.3329866 21.04022391 58.66706666 21.04320247 61 21 C61 21.33 61 21.66 61 22 C65.18090413 22.02480683 69.36176872 22.04291049 73.54272461 22.05493164 C74.96363064 22.05994565 76.38453156 22.06675852 77.80541992 22.07543945 C79.85336576 22.08763388 81.9012431 22.09325772 83.94921875 22.09765625 C85.17987061 22.10289307 86.41052246 22.10812988 87.6784668 22.11352539 C90.60471359 22.01351034 93.15204807 21.61704112 96 21 C98.33301986 20.96175377 100.66711508 20.95425716 103 21 C103 20.34 103 19.68 103 19 C104.01892334 18.87689453 105.03784668 18.75378906 106.08764648 18.62695312 C109.78047737 18.03517842 113.05500279 17.14764194 116.59765625 15.96875 C117.81130859 15.57042969 119.02496094 15.17210937 120.27539062 14.76171875 C121.52513672 14.34535156 122.77488281 13.92898438 124.0625 13.5 C126.55173382 12.67184922 129.04282007 11.85010367 131.53515625 11.03125 C133.18076538 10.48307617 133.18076538 10.48307617 134.85961914 9.92382812 C143.88486938 7.26880621 152.48716547 6.55944325 161.02734375 10.8671875 C166.08131988 13.76947082 169.12797206 16.38391619 171 22 C172.26475945 30.5864403 171.15067806 36.48656901 166.03125 43.515625 C165.02578125 44.74539063 165.02578125 44.74539063 164 46 C163.4328125 46.69609375 162.865625 47.3921875 162.28125 48.109375 C150.9728172 60.50897237 132.13893337 70.89688135 116 75 C114.515 74.505 114.515 74.505 113 74 C113.680625 73.731875 114.36125 73.46375 115.0625 73.1875 C133.82550377 65.60245592 157.4386089 56.02934842 167 37 C169.22229012 30.99508839 169.51342756 25.96106827 167.11328125 19.9765625 C164.15560519 14.72539026 159.67537299 12.5985983 154 11 C142.56034261 9.69174131 132.64445113 13.05122092 122.0078125 16.71875 C83.83094334 29.83865856 47.36850675 27.62083523 10.97460938 10.02050781 C1.41895061 5.1526251 1.41895061 5.1526251 0.19921875 1.796875 C0.13347656 1.20390625 0.06773437 0.6109375 0 0 Z " fill="#02557C" transform="translate(443,638)"/>
<path d="M0 0 C1.07391495 -0.00029205 2.1478299 -0.00058411 3.25428772 -0.00088501 C6.78752858 0.00050316 10.32055595 0.01604042 13.85375977 0.03173828 C16.30998113 0.03547023 18.76620398 0.03831634 21.22242737 0.04031372 C27.67504006 0.04793584 34.12756216 0.06757222 40.58013916 0.08972168 C47.16938044 0.11021068 53.75863641 0.11932197 60.34790039 0.12939453 C73.26786082 0.15081937 86.18775859 0.18455168 99.10766602 0.22705078 C99.10766602 0.55705078 99.10766602 0.88705078 99.10766602 1.22705078 C97.79967545 1.23513763 96.49168488 1.24322449 95.14405823 1.2515564 C82.79992998 1.32913905 70.45591031 1.41690893 58.11192417 1.51457787 C51.76620724 1.5644615 45.42050632 1.6107923 39.07470703 1.64892578 C32.94733808 1.68587867 26.82010568 1.73226588 20.69285393 1.78511429 C18.35859517 1.8036051 16.02430721 1.81873253 13.69000435 1.83039474 C10.4131493 1.84734814 7.13660338 1.87640528 3.85986328 1.90820312 C2.42163208 1.91144341 2.42163208 1.91144341 0.9543457 1.91474915 C-6.20325559 2.00311164 -13.90220629 2.41886665 -20.07983398 6.41455078 C-20.67151367 6.77935547 -21.26319336 7.14416016 -21.87280273 7.52001953 C-28.63570515 13.23643802 -31.88890051 19.92316282 -35.32983398 27.97705078 C-40.81304843 40.73095928 -47.28038171 51.1829064 -56.89233398 61.22705078 C-57.44405273 61.84193359 -57.99577148 62.45681641 -58.56420898 63.09033203 C-67.06923715 72.24797374 -78.31721176 78.76161029 -89.89233398 83.22705078 C-90.55233398 83.22705078 -91.21233398 83.22705078 -91.89233398 83.22705078 C-91.89233398 83.88705078 -91.89233398 84.54705078 -91.89233398 85.22705078 C-104.03776286 89.04349978 -104.03776286 89.04349978 -107.89233398 89.22705078 C-110.05639648 87.73486328 -110.05639648 87.73486328 -111.89233398 86.22705078 C-110.7437793 86.00791016 -109.59522461 85.78876953 -108.41186523 85.56298828 C-98.55035732 83.58770353 -89.8082471 81.04744283 -80.89233398 76.22705078 C-80.02350586 75.76427734 -79.15467773 75.30150391 -78.25952148 74.82470703 C-57.37281934 63.00636929 -44.17023896 44.93236539 -35.8059082 22.92431641 C-32.98844136 15.71677152 -29.13262943 9.09153193 -22.45483398 4.85205078 C-21.75487305 4.39056641 -21.05491211 3.92908203 -20.33374023 3.45361328 C-13.61421065 0.07772162 -7.38475519 -0.05291978 0 0 Z " fill="#056B82" transform="translate(636.892333984375,522.77294921875)"/>
<path d="M0 0 C14.14638822 -1.13171106 29.74321292 5.84017472 40.953125 14.203125 C43.42739695 16.3738053 45.72933277 18.61826753 48 21 C48.6703125 21.67417969 49.340625 22.34835937 50.03125 23.04296875 C57.89908774 31.36351938 63.96922683 41.34273448 69.625 51.25 C75.12508871 60.85905428 82.00976918 69.44299331 89 78 C89.474375 78.5878125 89.94875 79.175625 90.4375 79.78125 C115.00068479 109.87115137 151.87953649 124.9333944 189 132 C189 132.33 189 132.66 189 133 C152.41998095 132.86426709 118.70808007 110.33645107 93.08984375 86.265625 C91 84 91 84 91 82 C90.34 82 89.68 82 89 82 C87.0546875 79.8828125 87.0546875 79.8828125 84.875 77.125 C83.78832031 75.76761719 83.78832031 75.76761719 82.6796875 74.3828125 C81 72 81 72 81 70 C80.34 70 79.68 70 79 70 C77.83007812 68.61743164 77.83007812 68.61743164 76.53125 66.66015625 C76.04760986 65.93513916 75.56396973 65.21012207 75.06567383 64.46313477 C74.54900146 63.67092529 74.0323291 62.87871582 73.5 62.0625 C72.96463623 61.25288818 72.42927246 60.44327637 71.87768555 59.60913086 C68.33241552 54.1953296 65.02343157 48.67923594 61.8125 43.0625 C51.39681831 24.92996193 37.39747167 10.48432381 16.77734375 4.765625 C11.2243592 3.32656827 5.63129986 2.0937717 0 1 C0 0.67 0 0.34 0 0 Z " fill="#058682" transform="translate(287,586)"/>
<path d="M0 0 C0 0.33 0 0.66 0 1 C5.94 2.485 5.94 2.485 12 4 C12 4.33 12 4.66 12 5 C6.29982783 4.53216729 0.63073739 3.96073568 -5.0402832 3.21313477 C-39.52800671 -1.21399881 -75.2009224 6.83671517 -103.14428711 28.08007812 C-107.09513479 31.17878219 -110.92731527 34.41051572 -114.58203125 37.85546875 C-116 39 -116 39 -118 39 C-118.25136719 39.58007812 -118.50273437 40.16015625 -118.76171875 40.7578125 C-120.1544465 43.27966022 -121.72936452 44.89144079 -123.8125 46.875 C-127.12521355 50.09720225 -130.11464018 53.39330023 -133 57 C-133 52.9666466 -131.39120082 51.16482462 -129 48 C-128.34 48 -127.68 48 -127 48 C-126.94714844 47.45859375 -126.89429688 46.9171875 -126.83984375 46.359375 C-125.60777679 42.89812643 -123.1494758 40.75039908 -120.5625 38.25 C-120.0247998 37.72212891 -119.48709961 37.19425781 -118.93310547 36.65039062 C-97.60987934 16 -97.60987934 16 -89 16 C-88.505 14.515 -88.505 14.515 -88 13 C-85.12109375 11.68359375 -85.12109375 11.68359375 -81.4375 10.4375 C-80.23996094 10.02371094 -79.04242188 9.60992187 -77.80859375 9.18359375 C-73.902138 7.9695875 -69.97603435 6.95062596 -66 6 C-64.30206611 5.58210124 -62.60415043 5.16412844 -60.90625 4.74609375 C-59.10429285 4.30937488 -57.30220757 3.87318433 -55.5 3.4375 C-54.60152344 3.21642578 -53.70304687 2.99535156 -52.77734375 2.76757812 C-43.13581793 0.4449107 -33.86464213 -0.23547647 -23.96362305 -0.55761719 C-21.93831322 -0.62497295 -19.91357991 -0.70283168 -17.88867188 -0.78125 C-15.94637695 -0.84699219 -15.94637695 -0.84699219 -13.96484375 -0.9140625 C-12.7955835 -0.9548291 -11.62632324 -0.9955957 -10.42163086 -1.03759766 C-6.86490844 -0.99851558 -3.50622679 -0.57817967 0 0 Z " fill="#F72F5C" transform="translate(487,307)"/>
<path d="M0 0 C0 0.99 0 1.98 0 3 C-0.66 3.66 -1.32 4.32 -2 5 C-2.391875 5.969375 -2.78375 6.93875 -3.1875 7.9375 C-4.50486866 11.15554982 -6.18394739 13.86755929 -8.125 16.75 C-17.49029816 31.26324218 -24.45760676 47.90467278 -27.53125 64.9453125 C-28 67 -28 67 -30 69 C-30.49754423 72.03590898 -30.85333673 74.97968159 -31.1171875 78.0390625 C-31.20169159 78.99954498 -31.28619568 79.96002747 -31.3732605 80.94961548 C-32.43941748 94.66582352 -32.22296302 108.43164418 -32.1373291 122.17858887 C-32.11647467 125.89377491 -32.10765283 129.60899044 -32.09765625 133.32421875 C-32.07652298 140.54955655 -32.04261799 147.77475346 -32 155 C-32.66 154.67 -33.32 154.34 -34 154 C-36.26895544 113.84759209 -37.55758464 72.94406075 -22.19921875 35.01171875 C-20.97232276 32.15218328 -20.97232276 32.15218328 -20.45703125 29.64453125 C-20.23080078 28.83048828 -20.23080078 28.83048828 -20 28 C-19.34 27.67 -18.68 27.34 -18 27 C-16.87293294 24.88984046 -16.87293294 24.88984046 -15.875 22.4375 C-15.34519531 21.19806641 -15.34519531 21.19806641 -14.8046875 19.93359375 C-14.53914063 19.29550781 -14.27359375 18.65742188 -14 18 C-13.34 18 -12.68 18 -12 18 C-11.773125 17.319375 -11.54625 16.63875 -11.3125 15.9375 C-9.91437453 12.80836205 -8.18909099 10.36076623 -6.12109375 7.6484375 C-4.80867708 5.87939685 -4.80867708 5.87939685 -4 3 C-1.9375 1.3125 -1.9375 1.3125 0 0 Z " fill="#EE3486" transform="translate(356,357)"/>
<path d="M0 0 C-1.43570266 0.81567174 -2.87363434 1.62742093 -4.3125 2.4375 C-5.11300781 2.88996094 -5.91351563 3.34242188 -6.73828125 3.80859375 C-9 5 -9 5 -12 6 C-16.71683202 13.99726252 -15.99980577 24.14309779 -13.93359375 32.80078125 C-9.32994775 50.35021724 -2.41660247 67.07865598 6.01318359 83.11621094 C6.98893507 84.97887754 7.94313485 86.85136069 8.89453125 88.7265625 C13.94948209 98.57853207 19.80074146 107.83205363 26 117 C26.50112305 117.74137207 27.00224609 118.48274414 27.51855469 119.24658203 C32.9446216 127.22010629 38.40954841 134.91611537 45.0625 141.921875 C51 148.29032258 51 148.29032258 51 151 C50.34 151 49.68 151 49 151 C47.44140625 149.3046875 47.44140625 149.3046875 45.5625 146.875 C44.84449219 145.95074219 44.12648438 145.02648437 43.38671875 144.07421875 C42.59910156 143.05972656 41.81148438 142.04523438 41 141 C40.18144531 139.99582031 39.36289062 138.99164062 38.51953125 137.95703125 C-5 84.44164595 -5 84.44164595 -5 64 C-5.66 63.67 -6.32 63.34 -7 63 C-7.74389648 61.26757812 -7.74389648 61.26757812 -8.43359375 59.03125 C-8.68995605 58.2165625 -8.94631836 57.401875 -9.21044922 56.5625 C-9.47100098 55.716875 -9.73155273 54.87125 -10 54 C-10.51013576 52.42656922 -11.02183499 50.85364442 -11.53515625 49.28125 C-12.04502675 47.68774167 -12.55413921 46.0939906 -13.0625 44.5 C-13.31837891 43.70980469 -13.57425781 42.91960938 -13.83789062 42.10546875 C-17.45888554 30.73051814 -20.79574391 19.21514082 -15 8 C-11.87978386 2.91520333 -6.11418168 -2.03806056 0 0 Z " fill="#078A75" transform="translate(239,588)"/>
<path d="M0 0 C4.09271386 2.10166387 5.80192518 4.00350032 8 8 C8.9793879 9.02019573 9.97895449 10.02149805 11 11 C12.5 13 12.5 13 14 15 C14.8353125 15.804375 14.8353125 15.804375 15.6875 16.625 C17 18 17 18 17 20 C17.598125 20.226875 18.19625 20.45375 18.8125 20.6875 C22.45320921 22.87192553 23.69198068 26.07594205 25 30 C25.66 30 26.32 30 27 30 C27.12375 30.928125 27.12375 30.928125 27.25 31.875 C27.77905978 34.1346633 27.77905978 34.1346633 29.75 34.9375 C30.86375 35.4634375 30.86375 35.4634375 32 36 C33.68762851 37.6454378 35.3540349 39.31288577 37 41 C37.763125 41.53625 38.52625 42.0725 39.3125 42.625 C39.869375 43.07875 40.42625 43.5325 41 44 C41 44.99 41 45.98 41 47 C41.99 47.33 42.98 47.66 44 48 C44 48.66 44 49.32 44 50 C44.99 50 45.98 50 47 50 C48.3743291 51.29103643 49.70896357 52.6256709 51 54 C51.99 54.495 51.99 54.495 53 55 C53 55.66 53 56.32 53 57 C53.556875 57.0825 54.11375 57.165 54.6875 57.25 C57.71260238 58.23111429 59.56043201 59.97694362 62 62 C63.64821244 63.03013277 65.31503702 64.03114628 67 65 C67.845625 65.53625 68.69125 66.0725 69.5625 66.625 C71.884166 68.0767901 71.884166 68.0767901 74.25 68.5625 C74.8275 68.706875 75.405 68.85125 76 69 C76.33 69.66 76.66 70.32 77 71 C79.54574686 72.09166575 82.13667285 72.98545198 84.75 73.90234375 C85.4925 74.26457031 86.235 74.62679687 87 75 C87.33 75.99 87.66 76.98 88 78 C82.81243488 77.40504786 78.60389469 74.97333594 74.0625 72.5625 C73.22219238 72.11801514 72.38188477 71.67353027 71.51611328 71.21557617 C63.85435394 67.07426189 56.90524429 62.28516775 50 57 C49.05640625 56.30261719 48.1128125 55.60523438 47.140625 54.88671875 C42.5520073 51.44525547 42.5520073 51.44525547 41 50 C41 49.34 41 48.68 41 48 C40.41605469 47.74089844 39.83210937 47.48179687 39.23046875 47.21484375 C32.30267737 43.44156333 27.26994919 36.02611577 22.41796875 29.98828125 C19.82516087 26.78392256 17.17129798 23.63879833 14.5 20.5 C13.11955585 18.86942617 11.7401323 17.23799339 10.36083984 15.60644531 C9.45435199 14.53635381 8.54582335 13.46798771 7.63525391 12.40136719 C6.3540757 10.89845561 5.0830562 9.38690204 3.8125 7.875 C3.07644531 7.00617188 2.34039063 6.13734375 1.58203125 5.2421875 C0 3 0 3 0 0 Z " fill="#F9A21D" transform="translate(568,355)"/>
<path d="M0 0 C0.495 0.99 0.495 0.99 1 2 C-0.13388291 4.56773485 -1.32560053 7.01760737 -2.625 9.5 C-2.9974585 10.22977051 -3.36991699 10.95954102 -3.75366211 11.71142578 C-5.28152782 14.70218396 -6.83077734 17.68040956 -8.40234375 20.6484375 C-11.19316225 26.00455382 -13.4793011 31.50919914 -15.6875 37.125 C-15.985354 37.87765137 -16.28320801 38.63030273 -16.59008789 39.40576172 C-18.44549703 44.21537869 -19.84360985 48.97568416 -21 54 C-21.66 54 -22.32 54 -23 54 C-29.35769814 78.95734695 -31.65266696 104.31532087 -32 130 C-32.33 130 -32.66 130 -33 130 C-33.86795405 120.74560347 -34.03994987 111.82690478 -33.3125 102.5625 C-33.22000977 101.35456787 -33.12751953 100.14663574 -33.03222656 98.90209961 C-30.73239482 71.30593251 -24.79108768 27.14136619 -4 7 C-2.54814632 4.71780534 -1.28390422 2.38439355 0 0 Z " fill="#E6226F" transform="translate(256,314)"/>
<path d="M0 0 C1.41791408 0.45445964 2.83428046 0.91374944 4.25 1.375 C5.43335938 1.75785156 5.43335938 1.75785156 6.640625 2.1484375 C9 3 9 3 10.8671875 4.0078125 C13.79044448 5.36771593 16.71616848 5.87502688 19.875 6.5 C24.39486986 7.39811669 28.6369779 8.52997908 33 10 C38.63939448 11.28312065 44.1951472 12.31377583 50 12 C50 12.66 50 13.32 50 14 C51.3303125 13.7215625 51.3303125 13.7215625 52.6875 13.4375 C57.2160658 12.79827898 61.55340373 13.26723636 66.08984375 13.67578125 C70.82721619 14.06859035 75.56530977 14.322573 80.3125 14.5625 C81.1674707 14.60616699 82.02244141 14.64983398 82.90332031 14.69482422 C84.9354798 14.79788078 86.96773043 14.89913762 89 15 C89 15.33 89 15.66 89 16 C62.75596937 21.19067061 32.16983842 14.79266263 7.5 5.8125 C6.51217529 5.45623535 6.51217529 5.45623535 5.50439453 5.09277344 C3.71875 4.39453125 3.71875 4.39453125 1 3 C0.67 2.01 0.34 1.02 0 0 Z " fill="#F4C322" transform="translate(655,431)"/>
<path d="M0 0 C6.26219796 2.31933258 10.2060983 4.42770687 14 10 C16.05690394 16.17071181 16.27794885 22.98824859 13.71875 29.01953125 C11.97327171 31.85593347 10.10756543 34.42228535 8 37 C7.4328125 37.69609375 6.865625 38.3921875 6.28125 39.109375 C-5.0271828 51.50897237 -23.86106663 61.89688135 -40 66 C-40.99 65.67 -41.98 65.34 -43 65 C-41.9790625 64.5978125 -41.9790625 64.5978125 -40.9375 64.1875 C-22.17449623 56.60245592 1.4386089 47.02934842 11 28 C13.22229012 21.99508839 13.51342756 16.96106827 11.11328125 10.9765625 C8.63973293 6.58492934 5.31779579 4.51247614 0.625 2.6875 C-0.24125 2.460625 -1.1075 2.23375 -2 2 C-1.34 1.34 -0.68 0.68 0 0 Z " fill="#026F8D" transform="translate(599,647)"/>
<path d="M0 0 C-0.60585938 0.25652344 -1.21171875 0.51304687 -1.8359375 0.77734375 C-11.892877 5.37259149 -19.5463483 11.54192987 -24.16015625 21.73828125 C-27.85889654 31.69907486 -27.72358724 45.88024172 -23.45703125 55.57421875 C-17.94309398 64.75425908 -10.13662 71.51553688 0 75 C0 75.33 0 75.66 0 76 C-6.58483608 76.57052731 -10.93681063 72.81194142 -16 69 C-23.645349 62.21047365 -28.5845424 52.49067366 -29.23828125 42.27734375 C-29.53099103 30.7459091 -28.21878707 21.47465803 -21 12 C-20.443125 11.175 -19.88625 10.35 -19.3125 9.5 C-16.01867287 5.9391058 -12.14367791 3.48766579 -8 1 C-7.3296875 0.59136719 -6.659375 0.18273437 -5.96875 -0.23828125 C-3.56858515 -1.16691646 -2.38413879 -0.85147814 0 0 Z " fill="#0B3D60" transform="translate(443,429)"/>
<path d="M0 0 C0.99 0.99 0.99 0.99 2 2 C-0.06277319 1.87959235 -2.12519663 1.75320321 -4.1875 1.625 C-4.86619141 1.58318604 -5.54488281 1.54137207 -6.24414062 1.49829102 C-9.94526734 1.255124 -13.61965487 0.9456106 -17.30078125 0.48828125 C-29.63774519 -0.99426106 -41.901935 -1.22013118 -54.3125 -1.25 C-55.17528564 -1.25508575 -56.03807129 -1.26017151 -56.92700195 -1.26541138 C-59.42675669 -1.27726827 -61.92602055 -1.27403236 -64.42578125 -1.265625 C-65.17096512 -1.26958786 -65.91614899 -1.27355072 -66.68391418 -1.27763367 C-71.76630348 -1.23331478 -76.08869368 -0.2960789 -81 1 C-83.65234375 1.22705078 -83.65234375 1.22705078 -85.9375 1.1953125 C-87.18466797 1.18564453 -87.18466797 1.18564453 -88.45703125 1.17578125 C-89.29621094 1.15902344 -90.13539063 1.14226562 -91 1.125 C-91.87011719 1.11597656 -92.74023438 1.10695312 -93.63671875 1.09765625 C-95.7579342 1.07434619 -97.87900562 1.03848579 -100 1 C-96.4653265 -1.356449 -93.48390387 -1.63694973 -89.375 -2.0625 C-88.61791748 -2.14483887 -87.86083496 -2.22717773 -87.08081055 -2.31201172 C-58.78368035 -5.27092066 -27.91360184 -6.12737601 0 0 Z " fill="#F43D37" transform="translate(558,180)"/>
<path d="M0 0 C9.3075554 9.75246722 12.43649577 19.94610611 12.21484375 33.171875 C11.72727152 41.85952559 8.4849926 48.66092121 4 56 C3.34 56 2.68 56 2 56 C2.43119141 55.16662109 2.43119141 55.16662109 2.87109375 54.31640625 C4.05229 51.89270599 5.06842322 49.44348063 6.0625 46.9375 C6.40410156 46.08027344 6.74570312 45.22304688 7.09765625 44.33984375 C10.4561743 35.63095929 10.68539626 23.29516939 7.5625 14.4375 C2.97889004 5.17310107 -4.86139926 -2.12115446 -14.3828125 -5.9609375 C-22.4950855 -8.60045319 -30.57979631 -8.28525157 -39 -8 C-29.45531729 -17.54468271 -8.01194039 -6.94817016 0 0 Z " fill="#084466" transform="translate(483,436)"/>
<path d="M0 0 C11.77055933 2.19451106 21.80046002 6.54734853 31.85546875 13.015625 C34.82429466 14.88912011 37.83063015 16.55628822 40.9375 18.1875 C50.71223829 23.42447657 50.71223829 23.42447657 53 28 C53.99 28.33 54.98 28.66 56 29 C58.1875 30.9375 58.1875 30.9375 60 33 C60 33.66 60 34.32 60 35 C60.66 35 61.32 35 62 35 C62.33 35.66 62.66 36.32 63 37 C64.2684375 37.680625 64.2684375 37.680625 65.5625 38.375 C66.366875 38.91125 67.17125 39.4475 68 40 C68 41.32 68 42.64 68 44 C64.0439833 42.42868496 61.59735814 39.66125276 58.75 36.625 C44.21680923 21.69012673 26.71900935 10.86623964 7.0300293 4.20581055 C1.09293627 2.18587254 1.09293627 2.18587254 0 0 Z " fill="#F86F25" transform="translate(500,312)"/>
<path d="M0 0 C7.08740798 -0.3595062 13.37555568 0.97311147 20.25 2.625 C21.40242187 2.89860352 22.55484375 3.17220703 23.7421875 3.45410156 C38.70857794 7.06710768 53.10689225 11.52489452 67.5 17 C68.5621875 17.4031543 69.624375 17.80630859 70.71875 18.22167969 C78.03817194 21.06939228 85.03357415 24.37671149 92 28 C87.75877843 29.41374052 85.15327668 27.54871084 81.3125 25.75 C74.84991841 22.78416936 68.44291475 19.93897675 61.5625 18.0625 C58.80643297 17.2405151 56.56588068 16.36842983 54 15.1484375 C48.62181597 12.7324841 43.11494804 11.12025176 37.4375 9.5625 C36.3657251 9.264646 35.2939502 8.96679199 34.18969727 8.65991211 C22.90189312 5.59025534 11.48279028 3.21151185 0 1 C0 0.67 0 0.34 0 0 Z " fill="#F66325" transform="translate(561,182)"/>
<path d="M0 0 C0 0.33 0 0.66 0 1 C3.96 1.99 7.92 2.98 12 4 C12 4.33 12 4.66 12 5 C6.29982783 4.53216729 0.63073739 3.96073568 -5.0402832 3.21313477 C-29.07170895 0.12825931 -53.65729354 2.52971916 -75.8515625 12.75 C-79 14 -79 14 -82 13 C-62.50621733 3.29440905 -42.88763524 -0.00833646 -21.3125 -0.75 C-19.36029541 -0.81719238 -19.36029541 -0.81719238 -17.36865234 -0.88574219 C-11.42019981 -1.04197511 -5.89011043 -0.95598407 0 0 Z " fill="#F52F37" transform="translate(487,307)"/>
<path d="M0 0 C2.56616632 3.84924948 2.55097676 6.4349304 3 11 C3.33 11 3.66 11 4 11 C4.17450733 12.43656925 4.33896392 13.87435835 4.5 15.3125 C4.5928125 16.11300781 4.685625 16.91351562 4.78125 17.73828125 C5.10005018 22.49181971 5.03794278 27.23765455 5 32 C1.24847269 31.55364518 -2.50084699 31.09084458 -6.25 30.625 C-7.84521484 30.43550781 -7.84521484 30.43550781 -9.47265625 30.2421875 C-10.49746094 30.11328125 -11.52226562 29.984375 -12.578125 29.8515625 C-13.52075195 29.73635254 -14.46337891 29.62114258 -15.43457031 29.50244141 C-17.97132954 29.00561513 -19.7461448 28.22964389 -22 27 C-23.99220557 26.31039038 -25.99105606 25.63920943 -28 25 C-27.01 23.515 -27.01 23.515 -26 22 C-26 22.66 -26 23.32 -26 24 C-16.595 25.485 -16.595 25.485 -7 27 C-7 27.66 -7 28.32 -7 29 C-4.03 28.67 -1.06 28.34 2 28 C1.855625 26.6490625 1.71125 25.298125 1.5625 23.90625 C1.37478531 22.10418902 1.18729737 20.3021044 1 18.5 C0.90460938 17.613125 0.80921875 16.72625 0.7109375 15.8125 C0.16485054 10.50765526 -0.0996753 5.33262848 0 0 Z " fill="#C04698" transform="translate(323,514)"/>
<path d="M0 0 C0.66 0.33 1.32 0.66 2 1 C-9.08316358 12.80207149 -20.70374382 22.09902371 -36 28 C-36.66 28 -37.32 28 -38 28 C-38 28.66 -38 29.32 -38 30 C-50.14542887 33.81644899 -50.14542887 33.81644899 -54 34 C-56.1640625 32.5078125 -56.1640625 32.5078125 -58 31 C-56.85144531 30.78085937 -55.70289063 30.56171875 -54.51953125 30.3359375 C-44.65802334 28.36065275 -35.91591312 25.82039205 -27 21 C-26.13117187 20.53722656 -25.26234375 20.07445312 -24.3671875 19.59765625 C-15.23460559 14.43016084 -7.20552209 7.59500977 0 0 Z " fill="#045D80" transform="translate(583,578)"/>
<path d="M0 0 C0.33 0 0.66 0 1 0 C1.99 8.58 2.98 17.16 4 26 C4.66 26 5.32 26 6 26 C6 26.99 6 27.98 6 29 C6.66 29 7.32 29 8 29 C8.08636719 29.59425781 8.17273438 30.18851562 8.26171875 30.80078125 C9.44879429 37.80343788 11.89541733 43.64485116 15 50 C18.14499253 56.56502242 18.14499253 56.56502242 17 60 C6.12796862 43.19776969 -2.02396539 21.32416155 -1 1 C-0.67 0.67 -0.34 0.34 0 0 Z " fill="#C82372" transform="translate(224,443)"/>
<path d="M0 0 C16.61361565 8.00494536 32.19930577 16.97571111 47 28 C45.68 28.33 44.36 28.66 43 29 C42.505 27.515 42.505 27.515 42 26 C40.10820797 25.3185177 40.10820797 25.3185177 38 25 C37.01 24.67 36.02 24.34 35 24 C35 23.34 35 22.68 35 22 C34.360625 21.896875 33.72125 21.79375 33.0625 21.6875 C32.381875 21.460625 31.70125 21.23375 31 21 C30.505 19.515 30.505 19.515 30 18 C29.21625 17.855625 28.4325 17.71125 27.625 17.5625 C25 17 25 17 23 16 C23 15.34 23 14.68 23 14 C22.41992188 13.82984375 21.83984375 13.6596875 21.2421875 13.484375 C16.21196928 11.92384526 12.32659789 10.07669184 8 7 C4.40931029 5.09473607 0.79594903 3.45139228 -3 2 C-2.01 1.34 -1.02 0.68 0 0 Z " fill="#F88B23" transform="translate(653,210)"/>
<path d="M0 0 C0.85078125 -0.01417969 1.7015625 -0.02835938 2.578125 -0.04296875 C4.75 0.1875 4.75 0.1875 6.75 2.1875 C5.82960938 2.21328125 4.90921875 2.2390625 3.9609375 2.265625 C-5.28745943 2.68001346 -13.4372719 4.23549377 -22.25 7.1875 C-23.07935059 7.46464844 -23.90870117 7.74179687 -24.76318359 8.02734375 C-25.6598877 8.32769531 -26.5565918 8.62804687 -27.48046875 8.9375 C-28.4019873 9.24606934 -29.32350586 9.55463867 -30.27294922 9.87255859 C-32.08547013 10.48328899 -33.89584182 11.10044895 -35.70361328 11.72509766 C-50.11522508 16.64780806 -50.11522508 16.64780806 -57.25 16.1875 C-57.25 15.1975 -57.25 14.2075 -57.25 13.1875 C-53.62 13.1875 -49.99 13.1875 -46.25 13.1875 C-46.25 12.5275 -46.25 11.8675 -46.25 11.1875 C-45.23107666 11.06439453 -44.21215332 10.94128906 -43.16235352 10.81445312 C-39.46952263 10.22267842 -36.19499721 9.33514194 -32.65234375 8.15625 C-31.43869141 7.75792969 -30.22503906 7.35960937 -28.97460938 6.94921875 C-27.72486328 6.53285156 -26.47511719 6.11648438 -25.1875 5.6875 C-22.69826618 4.85934922 -20.20717993 4.03760367 -17.71484375 3.21875 C-16.617771 2.85330078 -15.52069824 2.48785156 -14.39038086 2.11132812 C-9.60310497 0.7030212 -4.98264821 0.03821049 0 0 Z " fill="#026084" transform="translate(592.25,645.8125)"/>
<path d="M0 0 C4.09271386 2.10166387 5.80192518 4.00350032 8 8 C8.9793879 9.02019573 9.97895449 10.02149805 11 11 C12.5 13 12.5 13 14 15 C14.8353125 15.804375 14.8353125 15.804375 15.6875 16.625 C17 18 17 18 17 20 C17.598125 20.226875 18.19625 20.45375 18.8125 20.6875 C22.45320921 22.87192553 23.69198068 26.07594205 25 30 C25.66 30 26.32 30 27 30 C27.66 31.98 28.32 33.96 29 36 C24.65595671 32.59811457 21.24466299 29.05343793 17.9375 24.625 C11.9496927 16.79568545 5.51333864 9.39351953 -1 2 C-0.67 1.34 -0.34 0.68 0 0 Z " fill="#F98C1F" transform="translate(568,355)"/>
<path d="M0 0 C4.68904938 0.48537295 7.61795294 2.62931808 11.1875 5.5 C11.75557373 5.94706299 12.32364746 6.39412598 12.90893555 6.85473633 C18.14113971 11.01626629 23.08198747 15.4744265 28 20 C30.6546672 22.34719351 33.32491829 24.67611617 36 27 C35.34 27.66 34.68 28.32 34 29 C33.58105469 28.55785156 33.16210938 28.11570312 32.73046875 27.66015625 C30.48954271 25.51028363 28.00568711 23.89818957 25.42578125 22.18359375 C24.95527344 21.79300781 24.48476563 21.40242188 24 21 C24 20.34 24 19.68 24 19 C23.47277344 18.78214844 22.94554687 18.56429688 22.40234375 18.33984375 C19.10045891 16.49830472 16.39179337 14.04257773 13.5625 11.5625 C10.49706962 8.87804371 7.6063978 6.35895494 4.08984375 4.27734375 C3.40019531 3.85582031 2.71054687 3.43429688 2 3 C2 2.34 2 1.68 2 1 C1.34 0.67 0.68 0.34 0 0 Z " fill="#F8AE1E" transform="translate(698,239)"/>
<path d="M0 0 C1.41791408 0.45445964 2.83428046 0.91374944 4.25 1.375 C5.43335938 1.75785156 5.43335938 1.75785156 6.640625 2.1484375 C9 3 9 3 10.8671875 4.0078125 C13.79044448 5.36771593 16.71616848 5.87502688 19.875 6.5 C24.39351521 7.39784752 28.64690865 8.49853266 33 10 C34.95426271 10.55617398 36.91253849 11.09848594 38.875 11.625 C39.84179688 11.88539063 40.80859375 12.14578125 41.8046875 12.4140625 C42.52914062 12.60742188 43.25359375 12.80078125 44 13 C44 13.33 44 13.66 44 14 C37.60072819 14.3832433 32.03107604 12.97648102 25.875 11.3125 C24.85905762 11.04139404 23.84311523 10.77028809 22.79638672 10.4909668 C6.55904481 6.06460162 6.55904481 6.06460162 1 3 C0.67 2.01 0.34 1.02 0 0 Z " fill="#F7B81C" transform="translate(655,431)"/>
<path d="M0 0 C2.97 0 5.94 0 9 0 C9 0.33 9 0.66 9 1 C6.03 1 3.06 1 0 1 C0 0.67 0 0.34 0 0 Z M0 1 C0 1.33 0 1.66 0 2 C-6.97671158 3.40697017 -12.97216188 4.35150733 -20 3 C-20 3.66 -20 4.32 -20 5 C-22.10170656 5.53067341 -24.20647598 6.04922857 -26.3125 6.5625 C-27.48425781 6.85253906 -28.65601563 7.14257812 -29.86328125 7.44140625 C-33 8 -33 8 -36 7 C-24.92767884 0.09052827 -12.71932785 -0.80771269 0 1 Z " fill="#F93C53" transform="translate(467,180)"/>
<path d="M0 0 C1.31728912 3.95186736 -0.03933399 6.06743846 -1.625 9.6875 C-4.97043394 17.6370948 -7.54645087 25.73827039 -10 34 C-10.33 34 -10.66 34 -11 34 C-11.30641437 27.19079188 -10.43213404 21.91020785 -8.1875 15.5 C-7.79594727 14.28570312 -7.79594727 14.28570312 -7.39648438 13.046875 C-5.89677146 8.63290515 -5.89677146 8.63290515 -5 7 C-4.01 6.67 -3.02 6.34 -2 6 C-0.77479736 2.99152582 -0.77479736 2.99152582 0 0 Z " fill="#EB286B" transform="translate(338,387)"/>
<path d="M0 0 C11.55 0 23.1 0 35 0 C32.20958343 2.79041657 29.44012197 2.50091275 25.6875 2.6875 C24.97561523 2.72657471 24.26373047 2.76564941 23.53027344 2.8059082 C7.11569344 3.55784672 7.11569344 3.55784672 0 0 Z " fill="#025175" transform="translate(500,661)"/>
<path d="M0 0 C0.66 0.33 1.32 0.66 2 1 C-1.19997523 4.2583198 -4.41140421 7.50511746 -7.625 10.75 C-8.52863281 11.67039062 -9.43226563 12.59078125 -10.36328125 13.5390625 C-11.24628906 14.42851562 -12.12929688 15.31796875 -13.0390625 16.234375 C-13.84553223 17.05131836 -14.65200195 17.86826172 -15.48291016 18.70996094 C-18.19062521 21.17343011 -20.91224278 23.04612059 -24 25 C-20.65377017 17.002143 -12.15209014 11.00143549 -5.6953125 5.47265625 C-3.69997138 3.73937606 -1.83007366 1.90632672 0 0 Z " fill="#FA337D" transform="translate(312,247)"/>
<path d="M0 0 C2.7515003 2.00109113 3.34677418 3.92999995 4.0625 7.125 C4.371875 8.40375 4.68125 9.6825 5 11 C5.66 11.33 6.32 11.66 7 12 C6.67 12.66 6.34 13.32 6 14 C6.66 14.33 7.32 14.66 8 15 C8.96484375 17.07421875 8.96484375 17.07421875 9.9375 19.6875 C11.43441381 23.59517387 13.05229903 27.29936815 15 31 C14.01 31 13.02 31 12 31 C0 4.26213592 0 4.26213592 0 0 Z " fill="#01BFA8" transform="translate(230,637)"/>
<path d="M0 0 C7.26319712 3.70626694 13.73600373 7.77226978 20 13 C18.68 13.33 17.36 13.66 16 14 C15.67 13.01 15.34 12.02 15 11 C13.10820797 10.3185177 13.10820797 10.3185177 11 10 C10.01 9.67 9.02 9.34 8 9 C8 8.34 8 7.68 8 7 C7.360625 6.896875 6.72125 6.79375 6.0625 6.6875 C5.381875 6.460625 4.70125 6.23375 4 6 C3.67 5.01 3.34 4.02 3 3 C1.35 2.67 -0.3 2.34 -2 2 C-1.34 1.34 -0.68 0.68 0 0 Z " fill="#F89C20" transform="translate(680,225)"/>
<path d="M0 0 C3.95904503 0.76795035 7.88440841 1.64991306 11.8125 2.5625 C13.55466797 2.96662109 13.55466797 2.96662109 15.33203125 3.37890625 C16.21246094 3.58386719 17.09289062 3.78882813 18 4 C18 4.66 18 5.32 18 6 C23.94 6.99 23.94 6.99 30 8 C30 8.33 30 8.66 30 9 C23.63249338 9.32709794 18.73646722 8.29772969 12.75 6.1875 C11.96109375 5.92646484 11.1721875 5.66542969 10.359375 5.39648438 C6.44318194 4.0569082 3.1356227 2.80688806 0 0 Z " fill="#B43B8A" transform="translate(277,533)"/>
<path d="M0 0 C0 0.33 0 0.66 0 1 C5.94 2.485 5.94 2.485 12 4 C12 4.33 12 4.66 12 5 C2.63859312 4.23167719 -6.67645247 3.1258211 -16 2 C-16 1.67 -16 1.34 -16 1 C-10.26696495 -0.57300962 -5.84340558 -1.24327778 0 0 Z " fill="#F85137" transform="translate(487,307)"/>
<path d="M0 0 C-1.051875 0.721875 -2.10375 1.44375 -3.1875 2.1875 C-6.46093927 4.51908451 -9.19222618 7.11833739 -12 10 C-13.64864545 11.35555293 -15.31003995 12.69631653 -17 14 C-17.66 13.67 -18.32 13.34 -19 13 C-15.63203401 8.21394307 -6.82607514 -3.41303757 0 0 Z " fill="#F72E6B" transform="translate(333,233)"/>
<path d="M0 0 C-5.31344658 2.10532789 -10.5887237 3.72810422 -16.1171875 5.16796875 C-20.04429411 6.30140196 -23.80543565 7.78983835 -27.58984375 9.328125 C-30.25135869 10.07007082 -31.40967054 9.75914606 -34 9 C-29.80530131 7.54403607 -25.60615004 6.10199798 -21.40234375 4.67260742 C-19.97330863 4.18453746 -18.54555337 3.69270318 -17.11914062 3.19702148 C-15.06706415 2.48465371 -13.01074655 1.78600707 -10.953125 1.08984375 C-9.71723633 0.66566162 -8.48134766 0.24147949 -7.20800781 -0.19555664 C-4.18702782 -0.95310071 -2.83392989 -1.14161586 0 0 Z " fill="#FD416C" transform="translate(429,189)"/>
<path d="M0 0 C-2.9771804 1.98478693 -4.5641385 2.45406619 -8 3.0625 C-10.79130441 3.56510094 -13.3015907 4.10053023 -16 5 C-18.1875 3.5625 -18.1875 3.5625 -20 2 C-17.79496964 1.46535565 -15.58577828 0.94785565 -13.375 0.4375 C-12.14523437 0.14746094 -10.91546875 -0.14257812 -9.6484375 -0.44140625 C-6.06141357 -0.99059728 -3.50902871 -0.81517436 0 0 Z " fill="#01628D" transform="translate(545,607)"/>
<path d="M0 0 C0 0.33 0 0.66 0 1 C-0.556875 1.08636719 -1.11375 1.17273438 -1.6875 1.26171875 C-9.09613103 2.62580791 -14.78788277 5.51608525 -20 11 C-20.99 10.67 -21.98 10.34 -23 10 C-17.32330464 4.20944542 -8.62197059 -3.06200825 0 0 Z " fill="#0B7892" transform="translate(630,524)"/>
<path d="M0 0 C0.33 0 0.66 0 1 0 C2.05162306 8.65711127 2.94047094 17.42188639 1 26 C0.67 26 0.34 26 0 26 C-0.9341316 21.27003206 -1.15174471 16.6801336 -1.125 11.875 C-1.12886719 11.17246094 -1.13273438 10.46992188 -1.13671875 9.74609375 C-1.13031314 6.35752363 -1.05709649 3.23840671 0 0 Z " fill="#F0C419" transform="translate(796,379)"/>
<path d="M0 0 C0 0.66 0 1.32 0 2 C1.17369141 2.29003906 1.17369141 2.29003906 2.37109375 2.5859375 C3.38300781 2.84632813 4.39492188 3.10671875 5.4375 3.375 C6.44683594 3.63023437 7.45617187 3.88546875 8.49609375 4.1484375 C11 5 11 5 12 7 C5.74476004 6.32375784 -2.44990211 4.55009789 -7 0 C-4.3333581 -1.33332095 -2.83319697 -0.67102033 0 0 Z " fill="#C63E9B" transform="translate(276,529)"/>
<path d="M0 0 C0.33 0.66 0.66 1.32 1 2 C2.92987258 2.56157237 2.92987258 2.56157237 5.25390625 2.8515625 C6.10791016 2.98046875 6.96191406 3.109375 7.84179688 3.2421875 C9.18854492 3.43167969 9.18854492 3.43167969 10.5625 3.625 C11.91504883 3.82609375 11.91504883 3.82609375 13.29492188 4.03125 C15.52889514 4.362209 17.76376696 4.68473505 20 5 C20 5.33 20 5.66 20 6 C18.25181409 6.22304441 16.50129677 6.4278645 14.75 6.625 C13.77546875 6.74101563 12.8009375 6.85703125 11.796875 6.9765625 C8.80107109 7.001667 7.53138873 6.50167128 5 5 C3.00779443 4.31039038 1.00894394 3.63920943 -1 3 C-0.67 2.01 -0.34 1.02 0 0 Z " fill="#CC47A7" transform="translate(296,536)"/>
<path d="M0 0 C-2.24842091 0.98293267 -4.49859547 1.96144466 -6.75 2.9375 C-7.70132812 3.35418945 -7.70132812 3.35418945 -8.671875 3.77929688 C-11.74367158 5.10720894 -14.71000026 6.34366167 -18 7 C-17.67 6.01 -17.34 5.02 -17 4 C-14.69251504 2.92592772 -12.52253443 2.05874914 -10.125 1.25 C-9.16787109 0.90001953 -9.16787109 0.90001953 -8.19140625 0.54296875 C-3.391478 -1.13049267 -3.391478 -1.13049267 0 0 Z " fill="#FE4069" transform="translate(416,316)"/>
<path d="M0 0 C0.33 0.66 0.66 1.32 1 2 C-1.31 4.97 -3.62 7.94 -6 11 C-6.66 10.01 -7.32 9.02 -8 8 C-5.33333333 5.33333333 -2.66666667 2.66666667 0 0 Z " fill="#F52D79" transform="translate(272,290)"/>
<path d="M0 0 C0 3 0 3 -1.75 5.04296875 C-2.4925 5.75066406 -3.235 6.45835937 -4 7.1875 C-4.7425 7.90292969 -5.485 8.61835937 -6.25 9.35546875 C-6.8275 9.89816406 -7.405 10.44085937 -8 11 C-8.99 10.67 -9.98 10.34 -11 10 C-5.555 5.05 -5.555 5.05 0 0 Z " fill="#0095BD" transform="translate(606,684)"/>
<path d="M0 0 C3.63559661 3.43361902 6.36113346 6.7973607 9 11 C8.67 11.66 8.34 12.32 8 13 C4.57167626 10.71445084 4.41098989 9.70384847 3 6 C2.00612666 4.66209359 1.0073108 3.32781878 0 2 C0 1.34 0 0.68 0 0 Z " fill="#F5B710" transform="translate(760,297)"/>
<path d="M0 0 C-3.20380017 2.13586678 -4.01939967 2.23132175 -7.6875 2.125 C-8.89986328 2.09792969 -8.89986328 2.09792969 -10.13671875 2.0703125 C-11.05904297 2.03550781 -11.05904297 2.03550781 -12 2 C-8.15820154 -2.0018734 -5.05897886 -0.92747946 0 0 Z " fill="#0187A6" transform="translate(561,713)"/>
<path d="M0 0 C0 3.77910478 -0.99703962 4.46106101 -3.5 7.1875 C-4.47453125 8.26064453 -4.47453125 8.26064453 -5.46875 9.35546875 C-5.9740625 9.89816406 -6.479375 10.44085938 -7 11 C-7 6.94835656 -5.38642331 5.20462558 -3 2 C-2.01 1.34 -1.02 0.68 0 0 Z " fill="#ED2354" transform="translate(361,353)"/>
<path d="M0 0 C1.875 0.5625 1.875 0.5625 4 2 C5.25 5.625 5.25 5.625 6 9 C0.42857143 3.85714286 0.42857143 3.85714286 0 0 Z " fill="#044666" transform="translate(413,610)"/>
<path d="M0 0 C2 1 2 1 2.8515625 3.06640625 C3.10679687 3.89011719 3.36203125 4.71382813 3.625 5.5625 C3.88539063 6.38878906 4.14578125 7.21507812 4.4140625 8.06640625 C4.60742188 8.70449219 4.80078125 9.34257812 5 10 C0.125 6.375 0.125 6.375 -1 3 C-0.67 2.01 -0.34 1.02 0 0 Z " fill="#D03795" transform="translate(234,485)"/>
<path d="M0 0 C0 3.58912412 -0.66436554 4.10857029 -3 6.6875 C-3.556875 7.31011719 -4.11375 7.93273437 -4.6875 8.57421875 C-5.120625 9.04472656 -5.55375 9.51523437 -6 10 C-6.33 9.34 -6.66 8.68 -7 8 C-4.69 5.36 -2.38 2.72 0 0 Z " fill="#EEC617" transform="translate(789,423)"/>
<path d="M0 0 C0.33 0.66 0.66 1.32 1 2 C-0.98 4.31 -2.96 6.62 -5 9 C-5.66 8.67 -6.32 8.34 -7 8 C-4.69 5.36 -2.38 2.72 0 0 Z " fill="#FA3282" transform="translate(287,272)"/>
<path d="M0 0 C0.33 0.99 0.66 1.98 1 3 C1.66 3 2.32 3 3 3 C3 5.64 3 8.28 3 11 C0.43383368 7.15075052 0.44902324 4.5650696 0 0 Z " fill="#D9399E" transform="translate(229,469)"/>
<path d="M0 0 C0.99 0 1.98 0 3 0 C4.35439668 2.70879335 4.06501451 5.00933268 4 8 C1.84622436 5.37801226 0.59927826 3.35595828 0 0 Z " fill="#CA297F" transform="translate(230,480)"/>
<path d="M0 0 C0 3.99904969 -1.72586967 5.80200422 -4 9 C-4.66 8.67 -5.32 8.34 -6 8 C-6 6 -6 6 -3.5625 3.4375 C-2.716875 2.633125 -1.87125 1.82875 -1 1 C-0.67 0.67 -0.34 0.34 0 0 Z " fill="#ED2158" transform="translate(352,364)"/>
<path d="M0 0 C4 1 4 1 4 1 Z " fill="#EE4D50" transform="translate(472,176)"/>
<path d="M0 0 C2 1 2 1 2 1 Z " fill="#18B3AB" transform="translate(293,584)"/>
<path d="M0 0 C2 1 2 1 2 1 Z " fill="#A26AA2" transform="translate(300,543)"/>
<path d="M0 0 C2 1 2 1 2 1 Z " fill="#EA415E" transform="translate(401,192)"/>
<path d="" fill="#048FA3" transform="translate(0,0)"/>
<path d="" fill="#039C9A" transform="translate(0,0)"/>
<path d="" fill="#038CA6" transform="translate(0,0)"/>
<path d="" fill="#01A599" transform="translate(0,0)"/>
<path d="" fill="#02A499" transform="translate(0,0)"/>
<path d="" fill="#0291A6" transform="translate(0,0)"/>
<path d="" fill="#03A596" transform="translate(0,0)"/>
<path d="" fill="#0292A6" transform="translate(0,0)"/>
<path d="" fill="#00A698" transform="translate(0,0)"/>
<path d="" fill="#00A895" transform="translate(0,0)"/>
<path d="" fill="#00A794" transform="translate(0,0)"/>
<path d="" fill="#0099B3" transform="translate(0,0)"/>
<path d="" fill="#00A5B0" transform="translate(0,0)"/>
<path d="" fill="#009EAB" transform="translate(0,0)"/>
<path d="" fill="#019EB2" transform="translate(0,0)"/>
<path d="" fill="#04AA96" transform="translate(0,0)"/>
<path d="" fill="#02A9A9" transform="translate(0,0)"/>
<path d="" fill="#02B097" transform="translate(0,0)"/>
<path d="" fill="#01668F" transform="translate(0,0)"/>
<path d="" fill="#006792" transform="translate(0,0)"/>
<path d="" fill="#1AAAB2" transform="translate(0,0)"/>
<path d="" fill="#178FA6" transform="translate(0,0)"/>
<path d="" fill="#AE5E9E" transform="translate(0,0)"/>
<path d="" fill="#26AFAF" transform="translate(0,0)"/>
<path d="" fill="#27B1B0" transform="translate(0,0)"/>
<path d="" fill="#26AFAE" transform="translate(0,0)"/>
<path d="" fill="#24AFB0" transform="translate(0,0)"/>
<path d="" fill="#23B0AD" transform="translate(0,0)"/>
<path d="" fill="#24ACB2" transform="translate(0,0)"/>
<path d="" fill="#B25B9B" transform="translate(0,0)"/>
<path d="" fill="#21A3AA" transform="translate(0,0)"/>
<path d="" fill="#BB4692" transform="translate(0,0)"/>
<path d="" fill="#BE448F" transform="translate(0,0)"/>
<path d="" fill="#22567C" transform="translate(0,0)"/>
<path d="" fill="#E9D03C" transform="translate(0,0)"/>
<path d="" fill="#2A557A" transform="translate(0,0)"/>
<path d="" fill="#EFCA37" transform="translate(0,0)"/>
<path d="" fill="#EEB933" transform="translate(0,0)"/>
<path d="" fill="#ECB336" transform="translate(0,0)"/>
<path d="" fill="#EEB135" transform="translate(0,0)"/>
<path d="" fill="#DD4184" transform="translate(0,0)"/>
<path d="" fill="#D7337F" transform="translate(0,0)"/>
<path d="" fill="#DA327B" transform="translate(0,0)"/>
<path d="" fill="#F79833" transform="translate(0,0)"/>
<path d="" fill="#DB377D" transform="translate(0,0)"/>
<path d="" fill="#EB416E" transform="translate(0,0)"/>
<path d="" fill="#EE446C" transform="translate(0,0)"/>
<path d="" fill="#F7863D" transform="translate(0,0)"/>
<path d="" fill="#F6853E" transform="translate(0,0)"/>
<path d="" fill="#FA8040" transform="translate(0,0)"/>
<path d="" fill="#F9803D" transform="translate(0,0)"/>
<path d="" fill="#E13679" transform="translate(0,0)"/>
<path d="" fill="#F87A3F" transform="translate(0,0)"/>
<path d="" fill="#F67A41" transform="translate(0,0)"/>
<path d="" fill="#F44B5D" transform="translate(0,0)"/>
<path d="" fill="#FA7144" transform="translate(0,0)"/>
<path d="" fill="#F7644C" transform="translate(0,0)"/>
<path d="" fill="#F55257" transform="translate(0,0)"/>
<path d="" fill="#F85753" transform="translate(0,0)"/>
<path d="" fill="#E23670" transform="translate(0,0)"/>
<path d="" fill="#F0B825" transform="translate(0,0)"/>
<path d="" fill="#F1A627" transform="translate(0,0)"/>
<path d="" fill="#E13568" transform="translate(0,0)"/>
<path d="" fill="#E43767" transform="translate(0,0)"/>
<path d="" fill="#EB3B60" transform="translate(0,0)"/>
<path d="" fill="#EF7F32" transform="translate(0,0)"/>
<path d="" fill="#F47A33" transform="translate(0,0)"/>
<path d="" fill="#EF3C5F" transform="translate(0,0)"/>
<path d="" fill="#EE7836" transform="translate(0,0)"/>
<path d="" fill="#EF405B" transform="translate(0,0)"/>
<path d="" fill="#EE6D39" transform="translate(0,0)"/>
<path d="" fill="#F15E44" transform="translate(0,0)"/>
<path d="" fill="#EE4A53" transform="translate(0,0)"/>
</svg>
